<?xml version="1.0" encoding="UTF-8"?>
<svg version="1.1" xmlns="http://www.w3.org/2000/svg" width="56" height="56">
<path d="M0 0 C3.27582601 2.03058761 5.88605216 4.35267014 8.375 7.3125 C8.84164062 7.79589844 9.30828125 8.27929688 9.7890625 8.77734375 C14.98699982 15.18038944 14.07544243 23.6013403 13.62060547 31.42382812 C13.32549014 33.69322394 12.64790331 35.41081313 11.375 37.3125 C8.5 37.4375 8.5 37.4375 5.375 37.3125 C3.375 35.3125 3.375 35.3125 3.125 31.71875 C3.23861966 27.23077328 4.1929683 23.12531836 5.375 18.8125 C5.66117188 17.72195312 5.66117188 17.72195312 5.953125 16.609375 C6.41837245 14.84143469 6.89543593 13.07661067 7.375 11.3125 C6.84390625 11.61285156 6.3128125 11.91320313 5.765625 12.22265625 C4.70601562 12.79306641 4.70601562 12.79306641 3.625 13.375 C2.92890625 13.75785156 2.2328125 14.14070313 1.515625 14.53515625 C-1.78317325 15.73307751 -3.67303745 14.74505232 -6.765625 13.33984375 C-8.71875 12.33072917 -10.671875 11.32161458 -12.625 10.3125 C-12.295 7.3425 -11.965 4.3725 -11.625 1.3125 C-22.96597782 6.20085251 -27.3962511 14.24062776 -31.875 25.4375 C-32.82031797 29.06121888 -33.23965599 32.58750795 -33.625 36.3125 C-34.615 35.9825 -35.605 35.6525 -36.625 35.3125 C-38.8332302 28.68780939 -39.02398761 18.24616963 -36.1875 11.8125 C-28.62739322 -0.33767161 -13.42960605 -6.34247169 0 0 Z " fill="#6E1ED6" transform="translate(39.625,10.6875)"/>
<path d="M0 0 C2.125 0.375 2.125 0.375 4 1 C4.125 3.375 4.125 3.375 4 6 C3.34 6.66 2.68 7.32 2 8 C-0.625 7.625 -0.625 7.625 -3 7 C-2.25 2.25 -2.25 2.25 0 0 Z " fill="#6E1DD6" transform="translate(33,33)"/>
<path d="M0 0 C0.99 0 1.98 0 3 0 C3.75 2.25 3.75 2.25 4 5 C2.0625 7.3125 2.0625 7.3125 0 9 C-0.99 8.34 -1.98 7.68 -3 7 C-2.25 2.25 -2.25 2.25 0 0 Z " fill="#6E1DD6" transform="translate(20,27)"/>
<path d="M0 0 C2.475 0.99 2.475 0.99 5 2 C5 2.99 5 3.98 5 5 C4.01 5 3.02 5 2 5 C1.34 6.32 0.68 7.64 0 9 C-0.98150241 6.05549278 -1.1613058 4.06481021 -1 1 C-0.67 0.67 -0.34 0.34 0 0 Z " fill="#6E1DD7" transform="translate(23,36)"/>
</svg>
