<?xml version="1.0" encoding="UTF-8"?>
<!DOCTYPE svg PUBLIC "-//W3C//DTD SVG 1.1//EN" "http://www.w3.org/Graphics/SVG/1.1/DTD/svg11.dtd">
<svg xmlns="http://www.w3.org/2000/svg" version="1.1" width="1434px" height="1434px" style="shape-rendering:geometricPrecision; text-rendering:geometricPrecision; image-rendering:optimizeQuality; fill-rule:evenodd; clip-rule:evenodd" xmlns:xlink="http://www.w3.org/1999/xlink">
<g><path style="opacity:0.994" fill="#6e1ed6" d="M 687.5,197.5 C 776.645,193.353 862.978,206.853 946.5,238C 1061.03,279.148 1157.87,345.648 1237,437.5C 1290.35,503.485 1333.02,576.151 1365,655.5C 1379.03,691.618 1388.03,728.952 1392,767.5C 1393.24,816.988 1394.07,866.488 1394.5,916C 1396.58,987.355 1385.41,1056.52 1361,1123.5C 1349.77,1153.29 1337.44,1182.63 1324,1211.5C 1317.59,1221.92 1308.75,1229.42 1297.5,1234C 1243.82,1243.32 1197.98,1228.82 1160,1190.5C 1134.9,1158.45 1125.24,1122.12 1131,1081.5C 1137.07,1036.17 1145.07,991.169 1155,946.5C 1172.7,867.021 1191.03,787.688 1210,708.5C 1217.92,672.222 1225.59,635.889 1233,599.5C 1237.02,574.998 1238.52,550.331 1237.5,525.5C 1203.97,523.506 1171.97,529.672 1141.5,544C 1109.54,558.968 1079.54,576.968 1051.5,598C 1032.39,613.107 1012.73,627.44 992.5,641C 988.167,641.667 983.833,641.667 979.5,641C 973.713,638.606 968.046,635.94 962.5,633C 911.074,596.269 856.408,564.602 798.5,538C 766.382,523.853 734.382,509.52 702.5,495C 700.333,492.833 698.167,490.667 696,488.5C 695.716,476.913 697.382,465.579 701,454.5C 709.723,432.054 718.723,409.72 728,387.5C 736.869,364.989 741.702,341.656 742.5,317.5C 742.594,303.801 740.427,290.467 736,277.5C 732.647,268.485 726.147,263.652 716.5,263C 685.914,261.384 656.581,266.717 628.5,279C 604.072,289.707 581.072,302.707 559.5,318C 507.729,355.749 458.896,397.249 413,442.5C 322.13,545.799 250.13,661.465 197,789.5C 155.197,889.375 125.197,992.708 107,1099.5C 102.759,1128.43 99.0924,1157.43 96,1186.5C 88.8951,1187.12 83.2284,1184.45 79,1178.5C 24.7898,1056.71 5.12312,929.378 20,796.5C 45.9158,633.815 117.749,495.649 235.5,382C 315.573,307.769 408.573,255.435 514.5,225C 571.178,208.691 628.845,199.524 687.5,197.5 Z"/></g>
<g><path style="opacity:0.988" fill="#6e1ed6" d="M 533.5,693.5 C 541.773,693.177 549.773,694.343 557.5,697C 581.196,712.051 592.862,733.717 592.5,762C 591.025,813.642 569.025,853.642 526.5,882C 505.198,894.943 484.198,894.61 463.5,881C 449.966,865.417 442.466,847.251 441,826.5C 438.596,782.374 454.096,745.874 487.5,717C 497.55,707.955 508.883,700.955 521.5,696C 525.637,695.161 529.637,694.327 533.5,693.5 Z"/></g>
<g><path style="opacity:0.989" fill="#6e1ed6" d="M 884.5,850.5 C 894.939,850.093 905.272,850.926 915.5,853C 940.809,869.791 951.309,893.291 947,923.5C 943.511,964.638 927.011,999.472 897.5,1028C 881.037,1041.82 862.037,1047.82 840.5,1046C 826.789,1041.4 814.955,1033.9 805,1023.5C 794.736,997.505 792.736,970.838 799,943.5C 807.566,907.288 827.399,879.121 858.5,859C 866.86,854.824 875.527,851.99 884.5,850.5 Z"/></g>
<g><path style="opacity:0.981" fill="#6e1ed6" d="M 603.5,937.5 C 647.689,938.347 683.856,955.68 712,989.5C 714.887,997.034 715.22,1004.7 713,1012.5C 705.899,1020.6 697.399,1026.77 687.5,1031C 675.681,1035.27 663.681,1038.94 651.5,1042C 640.049,1048.45 630.882,1057.28 624,1068.5C 612.517,1092.14 599.517,1114.81 585,1136.5C 584.275,1137.06 583.442,1137.39 582.5,1137.5C 578.803,1136.43 575.136,1135.27 571.5,1134C 575.898,1106.92 583.064,1080.42 593,1054.5C 600.03,1033.2 597.03,1013.53 584,995.5C 577.833,981.807 575.833,967.473 578,952.5C 579.775,948.058 582.942,944.891 587.5,943C 592.74,940.534 598.073,938.7 603.5,937.5 Z"/></g>
</svg>
