<?xml version="1.0" encoding="UTF-8"?>
<svg version="1.1" xmlns="http://www.w3.org/2000/svg" width="344" height="432">
<path d="M0 0 C0.76607574 0.00021149 1.53215149 0.00042297 2.32144165 0.00064087 C15.23383598 0.03608541 27.52904356 1.07038456 40.0625 4.375 C40.79404297 4.56755371 41.52558594 4.76010742 42.27929688 4.95849609 C75.88763598 14.12649562 107.8774971 33.17027996 129.4375 60.9375 C129.90518799 61.53828369 130.37287598 62.13906738 130.85473633 62.75805664 C135.67531009 69.04174123 140.02010684 75.56715307 144.0625 82.375 C144.40909668 82.95830078 144.75569336 83.54160156 145.11279297 84.14257812 C154.8212781 100.7596377 163.98828839 122.35835417 164.25537109 141.84179688 C164.27946548 143.4513324 164.27946548 143.4513324 164.30404663 145.09338379 C164.34916976 150.04613284 164.38965892 154.99875221 164.41259766 159.95166016 C164.42901798 162.53866662 164.45611862 165.12563042 164.49462891 167.71240234 C164.73514796 183.98613037 163.98164441 198.79495199 159.0625 214.375 C158.5355957 216.06254395 158.5355957 216.06254395 157.99804688 217.78417969 C157.11552549 220.39504671 156.15800173 222.94553919 155.125 225.5 C154.6151355 226.79707886 154.6151355 226.79707886 154.0949707 228.12036133 C147.4005775 244.81628167 147.4005775 244.81628167 142.0625 248.375 C132.15510135 249.37948546 123.44162363 249.30362521 115.0625 243.375 C114.42054688 242.96378906 113.77859375 242.55257812 113.1171875 242.12890625 C106.35272613 237.19465629 102.76474602 229.8288422 101.48046875 221.68359375 C100.84502156 212.07925719 102.77662037 202.68297963 104.6328125 193.30859375 C104.76316265 192.64284962 104.8935128 191.97710548 105.02781296 191.29118729 C108.04860251 175.88922262 111.59167404 160.61317561 115.19476318 145.33892822 C120.66182872 122.40737112 120.66182872 122.40737112 125.5078125 99.33984375 C125.66827057 98.52180267 125.82872864 97.7037616 125.99404907 96.8609314 C127.14993627 90.65751913 127.53307436 84.68853928 127.0625 78.375 C106.49998901 76.55351773 86.64294742 92.45688883 71.0625 104.375 C68.0625 106.375 68.0625 106.375 65.875 106.3359375 C61.76822309 104.93278872 58.58522957 102.49541139 55.0625 100 C40.00562259 89.69127273 23.82095156 82.03373902 7.06030273 74.90209961 C6.04653564 74.46905518 5.03276855 74.03601074 3.98828125 73.58984375 C3.08505127 73.20948975 2.18182129 72.82913574 1.2512207 72.43725586 C-0.9375 71.375 -0.9375 71.375 -2.9375 69.375 C-2.64006665 63.73792978 -0.80497434 59.20098396 1.4375 54.125 C6.21866653 42.83833174 11.10040783 30.91007438 6.75 18.6875 C5.20446235 16.10013673 5.20446235 16.10013673 2.0625 15.375 C-19.35713082 13.6750293 -39.70519707 31.08629858 -55.27734375 44.08984375 C-62.67626913 50.44574881 -69.76286301 56.81013034 -75.9375 64.375 C-76.36111816 64.88095703 -76.78473633 65.38691406 -77.22119141 65.90820312 C-107.91780482 102.59671124 -128.53792034 148.16816288 -139.9375 194.375 C-140.14455566 195.21144043 -140.35161133 196.04788086 -140.56494141 196.90966797 C-143.78579352 210.24079385 -145.42017565 223.75928641 -146.9375 237.375 C-149.9375 236.375 -149.9375 236.375 -150.91723633 234.82226562 C-151.88149786 232.51312028 -152.83598043 230.20465414 -153.75 227.875 C-154.09748291 226.99875977 -154.44496582 226.12251953 -154.80297852 225.21972656 C-160.79967014 209.45416428 -165.0320545 192.30719453 -165.140625 175.38671875 C-165.14768463 174.65020584 -165.15474426 173.91369293 -165.16201782 173.15486145 C-165.39278924 142.00830257 -165.39278924 142.00830257 -161.9375 128.375 C-161.73350586 127.56756348 -161.52951172 126.76012695 -161.31933594 125.92822266 C-150.18812786 83.37201011 -123.3151443 45.95554942 -85.37890625 23.3125 C-58.61823975 8.24633589 -30.84053739 -0.078891 0 0 Z " fill="#6E1ED6" transform="translate(169.9375,91.625)"/>
<path d="M0 0 C4.0887343 3.21879083 6.67038018 6.42053328 7.3359375 11.62890625 C7.49276588 23.40671765 4.15396111 32.41782211 -4 41 C-8.30788613 44.66628607 -12.35860849 46.30402709 -18 46 C-21.59222265 44.64444428 -24.74059741 43.16316363 -27 40 C-30.1833962 31.28754723 -29.30458539 23.51251854 -26 15 C-20.30807222 4.63098427 -12.45604391 -3.21799377 0 0 Z " fill="#6E1ED6" transform="translate(220,249)"/>
<path d="M0 0 C4.57600215 2.76286923 6.97958998 5.59161826 8.59375 10.703125 C10.01890101 18.76070958 7.8941243 26.9272381 4 34 C-0.31392039 40.06252404 -5.15273092 44.9694815 -12.5 46.9375 C-16.71256111 47.01272431 -18.56829743 46.44032183 -22 44 C-26.50945538 38.16930291 -27.47185607 32.19580508 -27 25 C-25.01899409 14.72563039 -20.17674755 8.13346192 -11.734375 2.12890625 C-7.94720708 -0.33616476 -4.43105907 -0.70962957 0 0 Z " fill="#6E1ED6" transform="translate(133,211)"/>
<path d="M0 0 C6.05537819 2.46632425 10.88088868 5.93032453 15 11 C15.6875 13.625 15.6875 13.625 15 16 C11.310446 20.34840293 6.14641586 21.33861361 0.83984375 22.77734375 C-4.743952 25.18137136 -6.87468207 30.37326762 -9.5625 35.5625 C-11.49138537 39.27850411 -13.37224125 42.73327256 -16 46 C-16.99 45.67 -17.98 45.34 -19 45 C-18.3789141 42.60309083 -17.75327634 40.20752506 -17.125 37.8125 C-16.95097656 37.13896484 -16.77695313 36.46542969 -16.59765625 35.77148438 C-15.83022998 32.85810685 -15.01851526 30.04589699 -13.890625 27.25 C-12.53845824 23.83399975 -12.4283868 20.58255252 -13 17 C-13.87496685 14.96357311 -13.87496685 14.96357311 -15 13 C-17.35714461 8.71658667 -17.74166277 5.8620115 -17 1 C-11.50663704 -3.44794739 -6.36174404 -1.78064083 0 0 Z " fill="#6E1ED6" transform="translate(156,271)"/>
</svg>
